<svg width="72" height="78" viewBox="0 0 72 78" fill="none" xmlns="http://www.w3.org/2000/svg">
<g filter="url(#filter0_d_241_235)">
<path d="M14.4 54.5835V50.6847C14.4 48.6166 15.1586 46.6332 16.5089 45.1709C17.8591 43.7086 19.6905 42.887 21.6 42.887H50.4C52.3096 42.887 54.1409 43.7086 55.4912 45.1709C56.8415 46.6332 57.6 48.6166 57.6 50.6847V54.5835C57.6 56.6515 56.8415 58.6349 55.4912 60.0972C54.1409 61.5596 52.3096 62.3811 50.4 62.3811H21.6C19.6905 62.3811 17.8591 61.5596 16.5089 60.0972C15.1586 58.6349 14.4 56.6515 14.4 54.5835ZM21.6 58.4823H50.4C51.3548 58.4823 52.2705 58.0715 52.9456 57.3404C53.6207 56.6092 54 55.6175 54 54.5835V50.6847C54 49.6506 53.6207 48.659 52.9456 47.9278C52.2705 47.1966 51.3548 46.7858 50.4 46.7858H21.6C20.6452 46.7858 19.7296 47.1966 19.0544 47.9278C18.3793 48.659 18 49.6506 18 50.6847V54.5835C18 55.6175 18.3793 56.6092 19.0544 57.3404C19.7296 58.0715 20.6452 58.4823 21.6 58.4823ZM14.4 27.2918C14.4 29.3598 15.1586 31.3432 16.5089 32.8055C17.8591 34.2679 19.6905 35.0894 21.6 35.0894H50.4C52.3096 35.0894 54.1409 34.2679 55.4912 32.8055C56.8415 31.3432 57.6 29.3598 57.6 27.2918V23.393C57.6 21.3249 56.8415 19.3415 55.4912 17.8792C54.1409 16.4169 52.3096 15.5953 50.4 15.5953H21.6C19.6905 15.5953 17.8591 16.4169 16.5089 17.8792C15.1586 19.3415 14.4 21.3249 14.4 23.393V27.2918ZM21.6 31.1906C20.6452 31.1906 19.7296 30.7798 19.0544 30.0487C18.3793 29.3175 18 28.3258 18 27.2918V23.393C18 22.3589 18.3793 21.3673 19.0544 20.6361C19.7296 19.9049 20.6452 19.4941 21.6 19.4941H50.4C51.3548 19.4941 52.2705 19.9049 52.9456 20.6361C53.6207 21.3673 54 22.3589 54 23.393V27.2918C54 28.3258 53.6207 29.3175 52.9456 30.0487C52.2705 30.7798 51.3548 31.1906 50.4 31.1906L21.6 31.1906Z" fill="black"/>
</g>
<defs>
<filter id="filter0_d_241_235" x="-4" y="0" width="80" height="85.9763" filterUnits="userSpaceOnUse" color-interpolation-filters="sRGB">
<feFlood flood-opacity="0" result="BackgroundImageFix"/>
<feColorMatrix in="SourceAlpha" type="matrix" values="0 0 0 0 0 0 0 0 0 0 0 0 0 0 0 0 0 0 127 0" result="hardAlpha"/>
<feOffset dy="4"/>
<feGaussianBlur stdDeviation="2"/>
<feComposite in2="hardAlpha" operator="out"/>
<feColorMatrix type="matrix" values="0 0 0 0 0 0 0 0 0 0 0 0 0 0 0 0 0 0 0.25 0"/>
<feBlend mode="normal" in2="BackgroundImageFix" result="effect1_dropShadow_241_235"/>
<feBlend mode="normal" in="SourceGraphic" in2="effect1_dropShadow_241_235" result="shape"/>
</filter>
</defs>
</svg>
