<svg width="55" height="65" viewBox="0 0 55 65" fill="none" xmlns="http://www.w3.org/2000/svg">
<g filter="url(#filter0_d_241_223)">
<path d="M44.3568 19.8683C41.931 9.32602 32.921 2 22.5249 2C10.0496 2 0 12.3636 0 25.2288C0 37.3793 9.18324 47.3856 20.7922 48.279V57.2132C20.7922 58.2853 21.4853 59 22.5249 59C23.5645 59 24.2576 58.2853 24.2576 57.2132V31.6614L32.4012 23.2633C33.0943 22.5486 33.0943 21.4765 32.4012 20.7618C31.7082 20.047 30.6686 20.047 29.9755 20.7618L24.2576 26.837V21.4765L18.5397 15.5799C17.8467 14.8652 16.8071 14.8652 16.114 15.5799C15.4209 16.2947 15.4209 17.3668 16.114 18.0815L20.7922 22.906V33.9843L14.208 27.1944C13.515 26.4796 12.4753 26.4796 11.7823 27.1944C11.0892 27.9091 11.0892 28.9812 11.7823 29.6959L20.7922 38.9875V44.7053C11.0892 43.8119 3.46537 35.4138 3.46537 25.2288C3.46537 14.3292 11.9555 5.57367 22.5249 5.57367C33.0943 5.57367 41.5845 14.3292 41.5845 25.2288C41.5845 33.9843 35.8666 41.6677 27.723 44.1693V47.9216C39.8518 44.884 47.3023 32.3762 44.3568 19.8683Z" fill="black"/>
</g>
<defs>
<filter id="filter0_d_241_223" x="0" y="0" width="55" height="65" filterUnits="userSpaceOnUse" color-interpolation-filters="sRGB">
<feFlood flood-opacity="0" result="BackgroundImageFix"/>
<feColorMatrix in="SourceAlpha" type="matrix" values="0 0 0 0 0 0 0 0 0 0 0 0 0 0 0 0 0 0 127 0" result="hardAlpha"/>
<feOffset dx="6" dy="2"/>
<feGaussianBlur stdDeviation="2"/>
<feComposite in2="hardAlpha" operator="out"/>
<feColorMatrix type="matrix" values="0 0 0 0 0 0 0 0 0 0 0 0 0 0 0 0 0 0 0.25 0"/>
<feBlend mode="normal" in2="BackgroundImageFix" result="effect1_dropShadow_241_223"/>
<feBlend mode="normal" in="SourceGraphic" in2="effect1_dropShadow_241_223" result="shape"/>
</filter>
</defs>
</svg>
