<svg width="197" height="107" viewBox="0 0 197 107" fill="none" xmlns="http://www.w3.org/2000/svg">
<path d="M1.47415 20.4453C1.47415 18.5526 1.86543 16.8692 2.648 15.395C3.44877 13.9027 4.54073 12.7379 5.92388 11.9008C7.32523 11.0636 8.89038 10.645 10.6193 10.645C12.8032 10.645 14.6414 11.1546 16.1337 12.1738C17.6261 13.1929 18.718 14.6216 19.4096 16.4597H17.99C17.4441 15.0037 16.5341 13.8572 15.2601 13.02C14.0044 12.1647 12.4574 11.737 10.6193 11.737C9.14517 11.737 7.80752 12.0919 6.60636 12.8016C5.4052 13.4932 4.45884 14.5033 3.76726 15.8318C3.07569 17.1422 2.7299 18.68 2.7299 20.4453C2.7299 22.1925 3.07569 23.7212 3.76726 25.0316C4.45884 26.3237 5.4052 27.3247 6.60636 28.0345C7.80752 28.7442 9.14517 29.0991 10.6193 29.0991C12.4574 29.0991 14.0044 28.6805 15.2601 27.8434C16.5341 26.988 17.4441 25.8324 17.99 24.3764H19.4096C18.718 26.2145 17.6261 27.6432 16.1337 28.6623C14.6414 29.6815 12.8032 30.1911 10.6193 30.1911C8.89038 30.1911 7.32523 29.7816 5.92388 28.9626C4.54073 28.1255 3.44877 26.9698 2.648 25.4957C1.86543 24.0033 1.47415 22.3199 1.47415 20.4453ZM25.2388 30.0819C24.9294 30.0819 24.6746 29.9818 24.4744 29.7816C24.2742 29.5814 24.1741 29.3266 24.1741 29.0172C24.1741 28.7078 24.2742 28.4531 24.4744 28.2529C24.6746 28.0527 24.9294 27.9526 25.2388 27.9526C25.53 27.9526 25.7757 28.0527 25.9759 28.2529C26.176 28.4531 26.2761 28.7078 26.2761 29.0172C26.2761 29.3266 26.176 29.5814 25.9759 29.7816C25.7757 29.9818 25.53 30.0819 25.2388 30.0819ZM42.5577 25.0862H33.4671L31.6381 30H30.3004L37.3435 11.2729H38.7085L45.7243 30H44.3867L42.5577 25.0862ZM42.1755 24.0488L38.026 12.8835L33.8493 24.0488H42.1755ZM50.8007 30.0819C50.4913 30.0819 50.2365 29.9818 50.0363 29.7816C49.8361 29.5814 49.736 29.3266 49.736 29.0172C49.736 28.7078 49.8361 28.4531 50.0363 28.2529C50.2365 28.0527 50.4913 27.9526 50.8007 27.9526C51.0919 27.9526 51.3375 28.0527 51.5377 28.2529C51.7379 28.4531 51.838 28.7078 51.838 29.0172C51.838 29.3266 51.7379 29.5814 51.5377 29.7816C51.3375 29.9818 51.0919 30.0819 50.8007 30.0819ZM62.7962 30.1911C61.5587 30.1911 60.4758 29.9727 59.5477 29.5359C58.6195 29.0991 57.8915 28.5077 57.3637 27.7615C56.8542 27.0153 56.563 26.1872 56.4902 25.2773H57.7732C57.9188 26.2782 58.3829 27.17 59.1655 27.9526C59.9662 28.7351 61.1765 29.1264 62.7962 29.1264C63.7426 29.1264 64.5616 28.9535 65.2531 28.6078C65.9629 28.262 66.5089 27.7888 66.8911 27.1882C67.2733 26.5876 67.4644 25.9233 67.4644 25.1954C67.4644 24.2672 67.2369 23.5301 66.7819 22.9842C66.3451 22.4382 65.79 22.0287 65.1166 21.7557C64.4615 21.4827 63.5697 21.1915 62.4413 20.8821C61.2038 20.5545 60.2028 20.227 59.4385 19.8994C58.6923 19.5718 58.0553 19.0713 57.5275 18.3979C57.0179 17.7063 56.7632 16.7691 56.7632 15.5861C56.7632 14.6762 56.9997 13.8481 57.4729 13.1019C57.9643 12.3375 58.6559 11.737 59.5477 11.3002C60.4394 10.8634 61.4677 10.645 62.6324 10.645C64.325 10.645 65.6899 11.0636 66.7273 11.9008C67.7647 12.7379 68.3834 13.7662 68.5836 14.9855H67.2733C67.1641 14.4942 66.9184 13.9937 66.5362 13.4841C66.1722 12.9745 65.6444 12.5559 64.9529 12.2283C64.2795 11.8826 63.4696 11.7097 62.5232 11.7097C61.2493 11.7097 60.1755 12.0646 59.302 12.7743C58.4284 13.4659 57.9916 14.3941 57.9916 15.5588C57.9916 16.487 58.2191 17.2332 58.6741 17.7973C59.1291 18.3433 59.6841 18.7619 60.3393 19.0531C61.0127 19.3261 61.9136 19.6082 63.0419 19.8994C64.2977 20.2452 65.2895 20.5818 66.0175 20.9094C66.7637 21.2188 67.3916 21.7193 67.9011 22.4109C68.4289 23.0843 68.6928 24.0033 68.6928 25.1681C68.6928 26.0234 68.4653 26.8333 68.0103 27.5977C67.5554 28.3621 66.882 28.9899 65.9902 29.4813C65.1166 29.9545 64.052 30.1911 62.7962 30.1911ZM74.3631 30.0819C74.0537 30.0819 73.7989 29.9818 73.5987 29.7816C73.3986 29.5814 73.2985 29.3266 73.2985 29.0172C73.2985 28.7078 73.3986 28.4531 73.5987 28.2529C73.7989 28.0527 74.0537 27.9526 74.3631 27.9526C74.6543 27.9526 74.9 28.0527 75.1002 28.2529C75.3004 28.4531 75.4005 28.7078 75.4005 29.0172C75.4005 29.3266 75.3004 29.5814 75.1002 29.7816C74.9 29.9818 74.6543 30.0819 74.3631 30.0819ZM91.682 25.0862H82.5914L80.7624 30H79.4247L86.4679 11.2729H87.8328L94.8487 30H93.511L91.682 25.0862ZM91.2998 24.0488L87.1504 12.8835L82.9736 24.0488H91.2998Z" fill="black"/>
<path d="M10.5101 50.0905C11.6203 50.2907 12.5484 50.8366 13.2946 51.7284C14.059 52.6202 14.4412 53.6666 14.4412 54.8678C14.4412 55.8506 14.2046 56.7332 13.7314 57.5158C13.2764 58.2802 12.5848 58.8898 11.6567 59.3448C10.7467 59.7816 9.63655 60 8.3262 60H2.23852V40.8361H8.217C10.1279 40.8361 11.5657 41.282 12.5302 42.1738C13.513 43.0473 14.0044 44.1848 14.0044 45.5861C14.0044 46.8055 13.6768 47.7973 13.0216 48.5617C12.3664 49.3079 11.5293 49.8175 10.5101 50.0905ZM3.46697 49.5445H8.2716C9.70935 49.5445 10.8104 49.2078 11.5748 48.5344C12.3573 47.8428 12.7486 46.8965 12.7486 45.6953C12.7486 44.5306 12.3664 43.6115 11.6021 42.9381C10.8377 42.2647 9.68205 41.9281 8.1351 41.9281H3.46697V49.5445ZM8.2443 58.9353C9.79124 58.9353 11.0015 58.5714 11.8751 57.8434C12.7668 57.0972 13.2127 56.078 13.2127 54.7859C13.2127 53.5119 12.7577 52.5019 11.8478 51.7557C10.956 50.9913 9.72754 50.6091 8.1624 50.6091H3.46697V58.9353H8.2443ZM20.0402 60.0819C19.7309 60.0819 19.4761 59.9818 19.2759 59.7816C19.0757 59.5814 18.9756 59.3266 18.9756 59.0172C18.9756 58.7078 19.0757 58.4531 19.2759 58.2529C19.4761 58.0527 19.7309 57.9526 20.0402 57.9526C20.3314 57.9526 20.5771 58.0527 20.7773 58.2529C20.9775 58.4531 21.0776 58.7078 21.0776 59.0172C21.0776 59.3266 20.9775 59.5814 20.7773 59.7816C20.5771 59.9818 20.3314 60.0819 20.0402 60.0819ZM27.7226 58.9626H34.8476V60H26.4941V40.8361H27.7226V58.9626ZM39.6305 60.0819C39.3211 60.0819 39.0663 59.9818 38.8661 59.7816C38.6659 59.5814 38.5658 59.3266 38.5658 59.0172C38.5658 58.7078 38.6659 58.4531 38.8661 58.2529C39.0663 58.0527 39.3211 57.9526 39.6305 57.9526C39.9217 57.9526 40.1674 58.0527 40.3675 58.2529C40.5677 58.4531 40.6678 58.7078 40.6678 59.0172C40.6678 59.3266 40.5677 59.5814 40.3675 59.7816C40.1674 59.9818 39.9217 60.0819 39.6305 60.0819ZM56.9493 55.0862H47.8588L46.0297 60H44.6921L51.7352 41.2729H53.1002L60.116 60H58.7784L56.9493 55.0862ZM56.5672 54.0488L52.4177 42.8835L48.241 54.0488H56.5672ZM65.1924 60.0819C64.883 60.0819 64.6282 59.9818 64.428 59.7816C64.2278 59.5814 64.1277 59.3266 64.1277 59.0172C64.1277 58.7078 64.2278 58.4531 64.428 58.2529C64.6282 58.0527 64.883 57.9526 65.1924 57.9526C65.4836 57.9526 65.7292 58.0527 65.9294 58.2529C66.1296 58.4531 66.2297 58.7078 66.2297 59.0172C66.2297 59.3266 66.1296 59.5814 65.9294 59.7816C65.7292 59.9818 65.4836 60.0819 65.1924 60.0819ZM85.3503 60H84.1219L72.8747 42.8562V60H71.6462V40.8634H72.8747L84.1219 57.9526V40.8634H85.3503V60ZM91.8473 60.0819C91.5379 60.0819 91.2831 59.9818 91.0829 59.7816C90.8827 59.5814 90.7826 59.3266 90.7826 59.0172C90.7826 58.7078 90.8827 58.4531 91.0829 58.2529C91.2831 58.0527 91.5379 57.9526 91.8473 57.9526C92.1385 57.9526 92.3842 58.0527 92.5843 58.2529C92.7845 58.4531 92.8846 58.7078 92.8846 59.0172C92.8846 59.3266 92.7845 59.5814 92.5843 59.7816C92.3842 59.9818 92.1385 60.0819 91.8473 60.0819ZM97.5368 50.4453C97.5368 48.5526 97.9281 46.8692 98.7106 45.395C99.5114 43.9027 100.603 42.7379 101.987 41.9008C103.388 41.0636 104.953 40.645 106.682 40.645C108.866 40.645 110.704 41.1546 112.196 42.1738C113.689 43.1929 114.781 44.6216 115.472 46.4597H114.053C113.507 45.0037 112.597 43.8572 111.323 43.02C110.067 42.1647 108.52 41.737 106.682 41.737C105.208 41.737 103.87 42.0919 102.669 42.8016C101.468 43.4932 100.521 44.5033 99.8299 45.8318C99.1383 47.1422 98.7925 48.68 98.7925 50.4453C98.7925 52.1925 99.1383 53.7212 99.8299 55.0316C100.521 56.3237 101.468 57.3247 102.669 58.0345C103.87 58.7442 105.208 59.0991 106.682 59.0991C108.52 59.0991 110.067 58.6805 111.323 57.8434C112.597 56.988 113.507 55.8324 114.053 54.3764H115.472C114.781 56.2145 113.689 57.6432 112.196 58.6623C110.704 59.6815 108.866 60.1911 106.682 60.1911C104.953 60.1911 103.388 59.7816 101.987 58.9626C100.603 58.1255 99.5114 56.9698 98.7106 55.4957C97.9281 54.0033 97.5368 52.3199 97.5368 50.4453ZM121.301 60.0819C120.992 60.0819 120.737 59.9818 120.537 59.7816C120.337 59.5814 120.237 59.3266 120.237 59.0172C120.237 58.7078 120.337 58.4531 120.537 58.2529C120.737 58.0527 120.992 57.9526 121.301 57.9526C121.593 57.9526 121.838 58.0527 122.038 58.2529C122.239 58.4531 122.339 58.7078 122.339 59.0172C122.339 59.3266 122.239 59.5814 122.038 59.7816C121.838 59.9818 121.593 60.0819 121.301 60.0819ZM138.62 55.0862H129.53L127.701 60H126.363L133.406 41.2729H134.771L141.787 60H140.449L138.62 55.0862ZM138.238 54.0488L134.089 42.8835L129.912 54.0488H138.238ZM146.863 60.0819C146.554 60.0819 146.299 59.9818 146.099 59.7816C145.899 59.5814 145.799 59.3266 145.799 59.0172C145.799 58.7078 145.899 58.4531 146.099 58.2529C146.299 58.0527 146.554 57.9526 146.863 57.9526C147.154 57.9526 147.4 58.0527 147.6 58.2529C147.801 58.4531 147.901 58.7078 147.901 59.0172C147.901 59.3266 147.801 59.5814 147.6 59.7816C147.4 59.9818 147.154 60.0819 146.863 60.0819ZM166.967 40.8361V60H165.738V50.7183H154.546V60H153.317V40.8361H154.546V49.681H165.738V40.8361H166.967Z" fill="black"/>
<path d="M48.8991 73.4711C48.8991 72.5387 49.0823 71.7228 49.4486 71.0235C49.826 70.3241 50.3422 69.7858 50.9971 69.4084C51.6631 69.031 52.4179 68.8423 53.2615 68.8423C54.2162 68.8423 55.0265 69.0754 55.6925 69.5416C56.3585 70.0078 56.8247 70.6016 57.0911 71.3232V68.9588H57.8404V78H57.0911V75.619C56.8247 76.3516 56.353 76.9566 55.6759 77.4339C55.0098 77.9001 54.2051 78.1332 53.2615 78.1332C52.4179 78.1332 51.6631 77.9445 50.9971 77.5671C50.3422 77.1786 49.826 76.6347 49.4486 75.9353C49.0823 75.2249 48.8991 74.4035 48.8991 73.4711ZM57.0911 73.4711C57.0911 72.683 56.9246 71.9892 56.5916 71.3898C56.2697 70.7793 55.8257 70.313 55.2596 69.9911C54.6935 69.6581 54.0608 69.4916 53.3614 69.4916C52.6288 69.4916 51.985 69.6526 51.43 69.9745C50.875 70.2853 50.4421 70.7404 50.1313 71.3398C49.8204 71.9392 49.665 72.6497 49.665 73.4711C49.665 74.2925 49.8204 75.0029 50.1313 75.6023C50.4421 76.2018 50.875 76.6624 51.43 76.9843C51.9961 77.3062 52.6399 77.4672 53.3614 77.4672C54.0608 77.4672 54.6935 77.3062 55.2596 76.9843C55.8368 76.6513 56.2864 76.1851 56.6083 75.5857C56.9302 74.9752 57.0911 74.2703 57.0911 73.4711ZM69.5137 68.7756C70.5904 68.7756 71.4673 69.1087 72.1445 69.7747C72.8216 70.4296 73.1601 71.4064 73.1601 72.7052V78H72.4275V72.7551C72.4275 71.6784 72.1556 70.857 71.6116 70.2908C71.0677 69.7136 70.3296 69.425 69.3971 69.425C68.4203 69.425 67.6377 69.7358 67.0494 70.3574C66.4722 70.9791 66.1836 71.9004 66.1836 73.1214V78H65.4343V68.9588H66.1836V70.8736C66.4389 70.1965 66.8607 69.6803 67.449 69.3251C68.0484 68.9588 68.7367 68.7756 69.5137 68.7756ZM84.0337 72.8717C84.0337 73.2713 84.0226 73.571 84.0004 73.7708H76.1913C76.2135 74.5811 76.3911 75.2638 76.7241 75.8188C77.0571 76.3738 77.4956 76.7901 78.0395 77.0676C78.5834 77.3451 79.1773 77.4838 79.8211 77.4838C80.7091 77.4838 81.4528 77.2674 82.0523 76.8345C82.6517 76.3905 83.0291 75.791 83.1845 75.0362H83.9671C83.7895 75.9575 83.3343 76.7068 82.6017 77.284C81.8691 77.8501 80.9422 78.1332 79.8211 78.1332C78.9775 78.1332 78.2227 77.9445 77.5566 77.5671C76.8906 77.1897 76.3689 76.6513 75.9915 75.952C75.6141 75.2416 75.4254 74.4146 75.4254 73.4711C75.4254 72.5276 75.6085 71.7061 75.9748 71.0068C76.3523 70.3075 76.874 69.7747 77.54 69.4084C78.206 69.031 78.9664 68.8423 79.8211 68.8423C80.6869 68.8423 81.4362 69.031 82.0689 69.4084C82.7127 69.7747 83.2011 70.2686 83.5341 70.8903C83.8672 71.5008 84.0337 72.1612 84.0337 72.8717ZM83.2844 73.1547C83.3177 72.3555 83.1734 71.6784 82.8515 71.1234C82.5407 70.5683 82.1133 70.1576 81.5694 69.8912C81.0255 69.6137 80.4372 69.475 79.8044 69.475C79.1717 69.475 78.5834 69.6137 78.0395 69.8912C77.5067 70.1576 77.0682 70.5683 76.7241 71.1234C76.3911 71.6784 76.2135 72.3555 76.1913 73.1547H83.2844ZM98.2032 68.9588L95.356 78H94.64L91.7595 69.9911L88.8623 78H88.1463L85.2991 68.9588H86.0817L88.5126 77.1508L91.4098 68.9588H92.1258L95.0063 77.1175L97.4373 68.9588H98.2032ZM104.244 73.4711C104.244 72.5276 104.427 71.7061 104.794 71.0068C105.171 70.3075 105.687 69.7747 106.342 69.4084C107.008 69.031 107.769 68.8423 108.623 68.8423C109.756 68.8423 110.682 69.1253 111.404 69.6914C112.137 70.2575 112.592 71.0179 112.769 71.9725H111.987C111.842 71.1955 111.465 70.585 110.855 70.141C110.255 69.697 109.511 69.475 108.623 69.475C107.957 69.475 107.352 69.6248 106.808 69.9245C106.265 70.2131 105.826 70.6627 105.493 71.2732C105.171 71.8726 105.01 72.6053 105.01 73.4711C105.01 74.348 105.171 75.0862 105.493 75.6856C105.826 76.285 106.265 76.7346 106.808 77.0343C107.352 77.334 107.957 77.4838 108.623 77.4838C109.511 77.4838 110.255 77.2618 110.855 76.8178C111.465 76.3738 111.842 75.7633 111.987 74.9863H112.769C112.592 75.9298 112.137 76.6902 111.404 77.2674C110.671 77.8446 109.745 78.1332 108.623 78.1332C107.769 78.1332 107.008 77.9445 106.342 77.5671C105.687 77.1897 105.171 76.6513 104.794 75.952C104.427 75.2416 104.244 74.4146 104.244 73.4711ZM119.115 78.1332C118.271 78.1332 117.511 77.9445 116.834 77.5671C116.157 77.1897 115.624 76.6513 115.235 75.952C114.858 75.2416 114.669 74.4146 114.669 73.4711C114.669 72.5387 114.863 71.7228 115.252 71.0235C115.64 70.313 116.173 69.7747 116.85 69.4084C117.538 69.031 118.304 68.8423 119.148 68.8423C119.992 68.8423 120.752 69.031 121.429 69.4084C122.106 69.7747 122.634 70.3075 123.011 71.0068C123.399 71.7061 123.594 72.5276 123.594 73.4711C123.594 74.4146 123.399 75.2416 123.011 75.952C122.622 76.6513 122.084 77.1897 121.396 77.5671C120.719 77.9445 119.958 78.1332 119.115 78.1332ZM119.115 77.4672C119.77 77.4672 120.38 77.3229 120.946 77.0343C121.524 76.7346 121.984 76.285 122.328 75.6856C122.672 75.0862 122.844 74.348 122.844 73.4711C122.844 72.6053 122.672 71.8726 122.328 71.2732C121.984 70.6738 121.529 70.2298 120.963 69.9412C120.397 69.6415 119.786 69.4916 119.131 69.4916C118.476 69.4916 117.866 69.6415 117.3 69.9412C116.745 70.2298 116.295 70.6738 115.951 71.2732C115.607 71.8726 115.435 72.6053 115.435 73.4711C115.435 74.348 115.601 75.0862 115.935 75.6856C116.279 76.285 116.728 76.7346 117.283 77.0343C117.849 77.3229 118.46 77.4672 119.115 77.4672ZM130.03 68.7756C131.106 68.7756 131.983 69.1087 132.66 69.7747C133.338 70.4296 133.676 71.4064 133.676 72.7052V78H132.943V72.7551C132.943 71.6784 132.672 70.857 132.128 70.2908C131.584 69.7136 130.846 69.425 129.913 69.425C128.936 69.425 128.154 69.7358 127.565 70.3574C126.988 70.9791 126.7 71.9004 126.7 73.1214V78H125.95V68.9588H126.7V70.8736C126.955 70.1965 127.377 69.6803 127.965 69.3251C128.564 68.9588 129.253 68.7756 130.03 68.7756ZM135.941 73.4711C135.941 72.5276 136.124 71.7061 136.491 71.0068C136.868 70.3075 137.384 69.7747 138.039 69.4084C138.705 69.031 139.466 68.8423 140.32 68.8423C141.453 68.8423 142.379 69.1253 143.101 69.6914C143.834 70.2575 144.289 71.0179 144.466 71.9725H143.684C143.539 71.1955 143.162 70.585 142.552 70.141C141.952 69.697 141.208 69.475 140.32 69.475C139.654 69.475 139.049 69.6248 138.505 69.9245C137.962 70.2131 137.523 70.6627 137.19 71.2732C136.868 71.8726 136.707 72.6053 136.707 73.4711C136.707 74.348 136.868 75.0862 137.19 75.6856C137.523 76.285 137.962 76.7346 138.505 77.0343C139.049 77.334 139.654 77.4838 140.32 77.4838C141.208 77.4838 141.952 77.2618 142.552 76.8178C143.162 76.3738 143.539 75.7633 143.684 74.9863H144.466C144.289 75.9298 143.834 76.6902 143.101 77.2674C142.368 77.8446 141.442 78.1332 140.32 78.1332C139.466 78.1332 138.705 77.9445 138.039 77.5671C137.384 77.1897 136.868 76.6513 136.491 75.952C136.124 75.2416 135.941 74.4146 135.941 73.4711ZM154.974 72.8717C154.974 73.2713 154.963 73.571 154.941 73.7708H147.132C147.154 74.5811 147.332 75.2638 147.665 75.8188C147.998 76.3738 148.436 76.7901 148.98 77.0676C149.524 77.3451 150.118 77.4838 150.762 77.4838C151.65 77.4838 152.394 77.2674 152.993 76.8345C153.592 76.3905 153.97 75.791 154.125 75.0362H154.908C154.73 75.9575 154.275 76.7068 153.542 77.284C152.81 77.8501 151.883 78.1332 150.762 78.1332C149.918 78.1332 149.163 77.9445 148.497 77.5671C147.831 77.1897 147.31 76.6513 146.932 75.952C146.555 75.2416 146.366 74.4146 146.366 73.4711C146.366 72.5276 146.549 71.7061 146.916 71.0068C147.293 70.3075 147.815 69.7747 148.481 69.4084C149.147 69.031 149.907 68.8423 150.762 68.8423C151.628 68.8423 152.377 69.031 153.01 69.4084C153.653 69.7747 154.142 70.2686 154.475 70.8903C154.808 71.5008 154.974 72.1612 154.974 72.8717ZM154.225 73.1547C154.258 72.3555 154.114 71.6784 153.792 71.1234C153.481 70.5683 153.054 70.1576 152.51 69.8912C151.966 69.6137 151.378 69.475 150.745 69.475C150.112 69.475 149.524 69.6137 148.98 69.8912C148.447 70.1576 148.009 70.5683 147.665 71.1234C147.332 71.6784 147.154 72.3555 147.132 73.1547H154.225ZM158.071 71.3398C158.327 70.6072 158.787 70.0078 159.453 69.5416C160.13 69.0754 160.946 68.8423 161.901 68.8423C162.745 68.8423 163.494 69.031 164.149 69.4084C164.815 69.7858 165.331 70.3241 165.697 71.0235C166.075 71.7228 166.263 72.5387 166.263 73.4711C166.263 74.4035 166.075 75.2249 165.697 75.9353C165.331 76.6347 164.815 77.1786 164.149 77.5671C163.494 77.9445 162.745 78.1332 161.901 78.1332C160.957 78.1332 160.147 77.9001 159.47 77.4339C158.804 76.9566 158.338 76.3572 158.071 75.6356V82.2625H157.322V68.9588H158.071V71.3398ZM165.497 73.4711C165.497 72.6497 165.342 71.9392 165.031 71.3398C164.72 70.7404 164.282 70.2853 163.716 69.9745C163.161 69.6526 162.517 69.4916 161.784 69.4916C161.085 69.4916 160.452 69.6581 159.886 69.9911C159.32 70.313 158.876 70.7793 158.554 71.3898C158.232 71.9892 158.071 72.683 158.071 73.4711C158.071 74.2703 158.232 74.9752 158.554 75.5857C158.876 76.1851 159.32 76.6513 159.886 76.9843C160.452 77.3062 161.085 77.4672 161.784 77.4672C162.517 77.4672 163.161 77.3062 163.716 76.9843C164.282 76.6624 164.72 76.2018 165.031 75.6023C165.342 75.0029 165.497 74.2925 165.497 73.4711ZM169.724 69.6082V75.5857C169.724 76.2517 169.846 76.7124 170.09 76.9677C170.335 77.2119 170.768 77.334 171.389 77.334H172.405V78H171.273C170.485 78 169.902 77.8168 169.524 77.4505C169.158 77.0731 168.975 76.4515 168.975 75.5857V69.6082H167.61V68.9588H168.975V66.661H169.724V68.9588H172.405V69.6082H169.724ZM174.348 78.05C174.159 78.05 174.004 77.9889 173.881 77.8668C173.759 77.7447 173.698 77.5893 173.698 77.4006C173.698 77.2119 173.759 77.0565 173.881 76.9344C174.004 76.8123 174.159 76.7512 174.348 76.7512C174.525 76.7512 174.675 76.8123 174.797 76.9344C174.919 77.0565 174.98 77.2119 174.98 77.4006C174.98 77.5893 174.919 77.7447 174.797 77.8668C174.675 77.9889 174.525 78.05 174.348 78.05Z" fill="#58391D"/>
</svg>
