<?xml version="1.0" encoding="UTF-8" standalone="no"?>
<svg
   width="40"
   height="40"
   viewBox="0 0 40 40"
   fill="none"
   version="1.1"
   id="svg1059"
   sodipodi:docname="logo_facebook.svg"
   inkscape:version="1.2.1 (9c6d41e410, 2022-07-14)"
   xmlns:inkscape="http://www.inkscape.org/namespaces/inkscape"
   xmlns:sodipodi="http://sodipodi.sourceforge.net/DTD/sodipodi-0.dtd"
   xmlns="http://www.w3.org/2000/svg"
   xmlns:svg="http://www.w3.org/2000/svg">
  <defs
     id="defs1063" />
  <sodipodi:namedview
     id="namedview1061"
     pagecolor="#ffffff"
     bordercolor="#000000"
     borderopacity="0.25"
     inkscape:showpageshadow="2"
     inkscape:pageopacity="0.0"
     inkscape:pagecheckerboard="0"
     inkscape:deskcolor="#d1d1d1"
     showgrid="false"
     inkscape:zoom="9.6875"
     inkscape:cx="52.851613"
     inkscape:cy="18.735484"
     inkscape:window-width="1278"
     inkscape:window-height="981"
     inkscape:window-x="-8"
     inkscape:window-y="0"
     inkscape:window-maximized="0"
     inkscape:current-layer="svg1059" />
  <path
     d="m 25.798585,34.931754 v -9.6016 h 4.0625 l 0.6094,-4.7148 h -4.6719 v -3.0117 c 0,-1.3672 0.3789,-2.2969 2.3359,-2.2969 h 2.4961 v -4.21875 c -0.4336,-0.05859 -1.914,-0.1875 -3.6406,-0.1875 -3.6016,0 -6.0664,2.19925 -6.0664,6.23435 v 3.4766 h -4.0703 v 4.7148 h 4.0742 v 9.6055"
     fill="#404040"
     id="path1057"
     sodipodi:nodetypes="cccccssccssccccc" />
  <path
     d="m 12.98357,1.2863524 c 1.955,-0.09 2.5784,-0.11 7.5584,-0.11 4.98,0 5.6033,0.02166 7.5566,0.11 1.9534,0.08833 3.2867,0.4 4.4534,0.85166 1.2216,0.46167 2.33,1.18334 3.2466,2.11667 0.9334,0.915 1.6534,2.02167 2.1134,3.245 0.4533,1.16667 0.7633,2.50002 0.8533,4.4500196 0.09,1.9583 0.11,2.5816 0.11,7.56 0,4.98 -0.0217,5.6033 -0.11,7.5583 -0.0883,1.95 -0.4,3.2833 -0.8533,4.45 -0.4601,1.2235 -1.1812,2.332 -2.1134,3.2483 -0.9166,0.9334 -2.025,1.6534 -3.2466,2.1134 -1.1667,0.4533 -2.5,0.7633 -4.45,0.8533 -1.9567,0.09 -2.58,0.11 -7.56,0.11 -4.98,0 -5.6034,-0.0217 -7.5584,-0.11 -1.95,-0.0883 -3.2833095,-0.4 -4.4499695,-0.8533 -1.22347,-0.4601 -2.33197,-1.1813 -3.24834,-2.1134 -0.9327,-0.9155 -1.65447,-2.0235 -2.115,-3.2466 -0.45166,-1.1667 -0.76166,-2.5 -0.85166,-4.45 -0.09,-1.9584 -0.11,-2.5817 -0.11,-7.56 0,-4.98 0.02166,-5.6034 0.11,-7.5567 0.08833,-1.9532996 0.4,-3.2866496 0.85166,-4.4533196 0.46121,-1.2232 1.18353,-2.33114 2.11667,-3.24667 0.91507,-0.93249 2.02245,-1.65426 3.245,-2.115 1.16667,-0.45166 2.5000395,-0.76166 4.4500395,-0.85166 z m 14.9667,3.3 c -1.9333,-0.08834 -2.5133,-0.10667 -7.4083,-0.10667 -4.895,0 -5.475,0.01833 -7.4084,0.10667 -1.7883,0.08166 -2.75831,0.38 -3.4049695,0.63166 -0.855,0.33334 -1.46667,0.72834 -2.10834,1.37001 -0.60826,0.59175 -1.07636,1.31213 -1.37,2.10833 -0.25166,0.64667 -0.55,1.6166496 -0.63166,3.4049496 -0.08834,1.9334 -0.10667,2.5134 -0.10667,7.4084 0,4.895 0.01833,5.475 0.10667,7.4083 0.08166,1.7883 0.38,2.7584 0.63166,3.405 0.29334,0.795 0.76167,1.5167 1.37,2.1083 0.59167,0.6084 1.31334,1.0767 2.10834,1.3701 0.6466595,0.2516 1.6166695,0.55 3.4049695,0.6316 1.9334,0.0884 2.5117,0.1067 7.4084,0.1067 4.8966,0 5.475,-0.0183 7.4083,-0.1067 1.7883,-0.0816 2.7583,-0.38 3.405,-0.6316 0.855,-0.3334 1.4667,-0.7284 2.1083,-1.3701 0.6084,-0.5916 1.0767,-1.3133 1.37,-2.1083 0.2517,-0.6466 0.55,-1.6167 0.6317,-3.405 0.0883,-1.9333 0.1067,-2.5133 0.1067,-7.4083 0,-4.895 -0.0184,-5.475 -0.1067,-7.4084 -0.0817,-1.7883 -0.38,-2.7582796 -0.6317,-3.4049496 -0.3333,-0.855 -0.7283,-1.46667 -1.37,-2.10833 -0.5918,-0.60822 -1.3121,-1.07632 -2.1083,-1.37001 -0.6467,-0.25166 -1.6167,-0.55 -3.405,-0.63166 z"
     style="clip-rule:evenodd;fill:#404040;fill-rule:evenodd"
     id="path5254" />
</svg>
