<?xml version="1.0" encoding="UTF-8" standalone="no"?>
<svg
   width="40"
   height="40"
   viewBox="0 0 40 40"
   fill="none"
   version="1.1"
   id="svg7960"
   sodipodi:docname="logo_youtube.svg"
   inkscape:version="1.2.1 (9c6d41e410, 2022-07-14)"
   xmlns:inkscape="http://www.inkscape.org/namespaces/inkscape"
   xmlns:sodipodi="http://sodipodi.sourceforge.net/DTD/sodipodi-0.dtd"
   xmlns="http://www.w3.org/2000/svg"
   xmlns:svg="http://www.w3.org/2000/svg">
  <defs
     id="defs7964" />
  <sodipodi:namedview
     id="namedview7962"
     pagecolor="#ffffff"
     bordercolor="#000000"
     borderopacity="0.25"
     inkscape:showpageshadow="2"
     inkscape:pageopacity="0.0"
     inkscape:pagecheckerboard="0"
     inkscape:deskcolor="#d1d1d1"
     showgrid="false"
     inkscape:zoom="20.1"
     inkscape:cx="20"
     inkscape:cy="20"
     inkscape:window-width="1628"
     inkscape:window-height="1020"
     inkscape:window-x="191"
     inkscape:window-y="16"
     inkscape:window-maximized="0"
     inkscape:current-layer="svg7960" />
  <path
     fill-rule="evenodd"
     clip-rule="evenodd"
     d="m 12.4416,1.77675 c 1.955,-0.09 2.5784,-0.11 7.5584,-0.11 4.98,0 5.6033,0.02166 7.5566,0.11 1.9534,0.08833 3.2867,0.4 4.4534,0.85166 1.2216,0.46167 2.33,1.18334 3.2466,2.11667 0.9334,0.915 1.6534,2.02167 2.1134,3.245 0.4533,1.16667 0.7633,2.50002 0.8533,4.45002 0.09,1.9583 0.11,2.5816 0.11,7.56 0,4.98 -0.0217,5.6033 -0.11,7.5583 -0.0883,1.95 -0.4,3.2833 -0.8533,4.45 -0.4601,1.2235 -1.1812,2.332 -2.1134,3.2483 -0.9166,0.9334 -2.025,1.6534 -3.2466,2.1134 -1.1667,0.4533 -2.5,0.7633 -4.45,0.8533 -1.9567,0.09 -2.58,0.11 -7.56,0.11 -4.98,0 -5.6034,-0.0217 -7.5584,-0.11 -1.95,-0.0883 -3.28331,-0.4 -4.44997,-0.8533 C 6.76816,36.91 5.65966,36.1888 4.74329,35.2567 c -0.9327,-0.9155 -1.65447,-2.0235 -2.115,-3.2466 -0.45166,-1.1667 -0.76166,-2.5 -0.85166,-4.45 -0.09,-1.9584 -0.11,-2.5817 -0.11,-7.56 0,-4.98 0.02166,-5.6034 0.11,-7.5567 0.08833,-1.9533 0.4,-3.28665 0.85166,-4.45332 C 3.0895,6.76688 3.81182,5.65894 4.74496,4.74341 5.66003,3.81092 6.76741,3.08915 7.98996,2.62841 9.15663,2.17675 10.49,1.86675 12.44,1.77675 Z m 14.9667,3.3 C 25.475,4.98841 24.895,4.97008 20,4.97008 c -4.895,0 -5.475,0.01833 -7.4084,0.10667 -1.7883,0.08166 -2.75831,0.38 -3.40497,0.63166 -0.855,0.33334 -1.46667,0.72834 -2.10834,1.37001 -0.60826,0.59175 -1.07636,1.31213 -1.37,2.10833 -0.25166,0.64667 -0.55,1.61665 -0.63166,3.40495 -0.08834,1.9334 -0.10667,2.5134 -0.10667,7.4084 0,4.895 0.01833,5.475 0.10667,7.4083 0.08166,1.7883 0.38,2.7584 0.63166,3.405 0.29334,0.795 0.76167,1.5167 1.37,2.1083 0.59167,0.6084 1.31334,1.0767 2.10834,1.3701 0.64666,0.2516 1.61667,0.55 3.40497,0.6316 1.9334,0.0884 2.5117,0.1067 7.4084,0.1067 4.8966,0 5.475,-0.0183 7.4083,-0.1067 1.7883,-0.0816 2.7583,-0.38 3.405,-0.6316 0.855,-0.3334 1.4667,-0.7284 2.1083,-1.3701 0.6084,-0.5916 1.0767,-1.3133 1.37,-2.1083 0.2517,-0.6466 0.55,-1.6167 0.6317,-3.405 0.0883,-1.9333 0.1067,-2.5133 0.1067,-7.4083 0,-4.895 -0.0184,-5.475 -0.1067,-7.4084 -0.0817,-1.7883 -0.38,-2.75828 -0.6317,-3.40495 -0.3333,-0.855 -0.7283,-1.46667 -1.37,-2.10833 C 32.3298,6.4702 31.6095,6.0021 30.8133,5.70841 30.1666,5.45675 29.1966,5.15841 27.4083,5.07675 Z m 2.5434,3.0543 c -19.9678,-5.4207 -9.9839,-2.71035 0,0 z"
     fill="#404040"
     id="path7958"
     sodipodi:nodetypes="cscccccscccccscccccscccccccscccccscccccscccccsccccccc" />
  <path
     d="M 16.563278,25.8887 26.91931,19.454879 16.563278,13.116275 Z"
     style="fill:#404040;stroke-width:1.11323"
     id="path9180" />
</svg>
